<svg id="Layer_1" data-name="Layer 1" xmlns="http://www.w3.org/2000/svg" viewBox="0 0 81 32.62"><defs><style>.cls-1{fill:#005eb8;}.cls-2{fill:#fff;}</style></defs><title>nhs-logo</title><polygon class="cls-1" points="0.65 0.65 0.65 31.96 80.24 31.96 80.24 0.65 0.65 0.65 0.65 0.65"/><path class="cls-2" d="M81,32.62V0H0V32.62ZM32.57,3.15,27,29.4H18.2L12.68,11.23h-.07L8.94,29.4H2.28L7.92,3.15h8.81l5.4,18.2h.08l3.7-18.2Zm25.09,0L52.18,29.4H45.12l2.34-11.24H39.1L36.76,29.4H29.69L35.17,3.15h7.07l-2.08,10h8.36l2.08-10ZM78,3.86,76.26,9.09a13.3,13.3,0,0,0-5.82-1.2c-2.79,0-5.06.41-5.06,2.52,0,3.72,10.24,2.33,10.24,10.31,0,7.25-6.77,9.14-12.89,9.14a29.77,29.77,0,0,1-8.16-1.36l1.66-5.34a13.84,13.84,0,0,0,6.5,1.5c2.19,0,5.63-.41,5.63-3.12,0-4.21-10.24-2.63-10.24-10,0-6.77,6-8.8,11.76-8.8,3.25,0,6.31.34,8.09,1.16Z"/></svg>